<svg width="4055" height="1279" viewBox="0 0 4055 1279" fill="none" xmlns="http://www.w3.org/2000/svg">
<mask id="path-1-outside-1_28_49" maskUnits="userSpaceOnUse" x="0" y="0" width="4055" height="850" fill="black">
<rect fill="white" width="4055" height="850"/>
<path d="M240.801 495.204L238.401 248.802C238.401 224.801 238.668 209.334 239.201 202.401C239.735 185.334 243.735 173.067 251.202 165.601C259.202 157.6 274.402 153.6 296.802 153.6H511.205C533.605 153.6 548.538 157.6 556.005 165.601C564.005 173.067 568.272 185.334 568.805 202.401C569.872 236.001 570.405 276.535 570.405 324.002C570.405 370.936 569.339 428.004 567.205 495.204C565.605 599.206 512.005 667.74 406.403 700.807C345.603 720.007 267.735 729.607 172.801 729.607C151.467 729.607 137.334 723.207 130.4 710.407C123.467 697.607 120 675.473 120 644.006C120 612.006 132.267 594.672 156.8 592.006C186.667 588.272 208.001 575.739 220.801 554.405C234.135 532.538 240.801 512.805 240.801 495.204Z"/>
<path d="M909.753 341.603L908.953 536.805C908.953 552.272 912.42 564.005 919.353 572.005C926.287 580.005 935.087 584.005 945.754 584.005C956.954 584.005 967.354 580.005 976.954 572.005C987.087 563.472 994.287 552.005 998.554 537.605V488.804C998.554 418.404 1000.15 370.403 1003.35 344.803C1004.95 335.736 1009.49 327.736 1016.95 320.802C1024.42 313.869 1037.49 309.869 1056.15 308.802C1075.36 307.202 1094.29 306.402 1112.96 306.402C1131.62 306.402 1163.36 307.469 1208.16 309.602C1220.96 310.136 1231.09 313.869 1238.56 320.802C1246.02 327.736 1250.29 335.736 1251.36 344.803C1255.09 379.47 1256.96 432.804 1256.96 504.805C1256.96 576.272 1255.89 625.073 1253.76 651.206C1251.62 677.34 1247.62 694.407 1241.76 702.407C1235.89 710.407 1223.89 714.407 1205.76 714.407H1049.75C1031.62 714.407 1019.35 710.407 1012.95 702.407C1007.09 694.407 1003.35 680.807 1001.75 661.606V660.806C946.82 702.94 891.086 724.007 834.552 724.007C778.018 724.007 735.084 710.14 705.751 682.407C676.95 654.14 662.017 614.406 660.95 563.205C660.417 512.005 660.15 466.404 660.15 426.404C660.15 386.403 660.417 359.469 660.95 345.603C661.483 331.736 664.95 321.869 671.35 316.002C678.284 309.602 691.35 306.402 710.551 306.402L864.153 304.802C881.219 304.802 892.953 308.002 899.353 314.402C906.286 320.269 909.753 329.336 909.753 341.603Z"/>
<path d="M1405.32 128.8H1558.92C1576.52 128.8 1588.25 133.067 1594.12 141.6C1599.98 149.6 1603.72 162.667 1605.32 180.801C1608.52 244.801 1610.12 333.336 1610.12 446.404C1610.12 558.938 1607.98 636.539 1603.72 679.207C1602.65 687.74 1598.38 695.473 1590.92 702.407C1583.45 709.34 1570.12 713.34 1550.92 714.407C1532.25 716.007 1510.12 716.807 1484.52 716.807C1458.92 716.807 1435.98 716.274 1415.72 715.207C1381.05 712.54 1362.91 700.54 1361.31 679.207C1355.98 632.806 1353.31 550.672 1353.31 432.804C1353.31 314.402 1355.45 230.401 1359.71 180.801C1361.31 162.667 1364.78 149.6 1370.11 141.6C1375.98 133.067 1387.71 128.8 1405.32 128.8Z"/>
<path d="M1757.64 308.802H1913.65C1931.78 308.802 1943.78 312.802 1949.65 320.802C1956.05 328.802 1960.05 346.669 1961.65 374.403C1963.78 401.603 1964.85 451.737 1964.85 524.805C1964.85 597.339 1963.25 648.54 1960.05 678.407C1958.45 687.473 1953.91 695.473 1946.45 702.407C1938.98 709.34 1925.65 713.34 1906.45 714.407C1887.78 716.007 1865.38 716.807 1839.25 716.807C1813.11 716.807 1789.38 716.007 1768.04 714.407C1746.71 713.34 1732.31 709.34 1724.84 702.407C1717.38 695.473 1713.11 687.473 1712.04 678.407C1708.31 643.74 1706.44 590.672 1706.44 519.205C1706.44 447.204 1707.51 398.137 1709.64 372.003C1711.78 345.869 1715.78 328.802 1721.64 320.802C1727.51 312.802 1739.51 308.802 1757.64 308.802ZM1844.05 120C1879.25 120 1905.65 127.2 1923.25 141.6C1941.38 155.467 1950.45 174.667 1950.45 199.201C1950.45 256.802 1912.05 285.602 1835.25 285.602C1804.31 285.602 1777.91 278.935 1756.04 265.602C1734.18 252.268 1723.24 232.268 1723.24 205.601C1723.24 148.534 1763.51 120 1844.05 120Z"/>
<path d="M2342.74 293.602C2516.61 293.602 2604.34 350.136 2605.94 463.204C2607.01 511.205 2607.54 555.205 2607.54 595.206C2607.54 635.206 2607.28 662.14 2606.74 676.007C2606.21 689.873 2602.48 700.007 2595.54 706.407C2589.14 712.274 2576.34 715.207 2557.14 715.207H2387.54C2370.47 715.207 2358.74 712.274 2352.34 706.407C2345.94 700.007 2342.47 690.673 2341.94 678.407C2341.94 677.873 2341.67 677.073 2341.14 676.007C2341.14 674.406 2341.14 673.073 2341.14 672.007C2305.94 708.274 2257.94 726.407 2197.14 726.407C2155 726.407 2119 716.007 2089.14 695.207C2059.8 673.873 2045.14 644.806 2045.14 608.006C2045.14 570.672 2055.54 541.072 2076.34 519.205C2097.67 496.804 2122.74 481.604 2151.54 473.604C2180.87 465.604 2212.07 461.604 2245.14 461.604C2278.74 461.604 2311.54 464.804 2343.54 471.204V468.004C2343.54 441.337 2338.21 422.137 2327.54 410.403C2317.41 398.67 2300.6 392.803 2277.14 392.803C2254.2 392.803 2235 394.937 2219.54 399.203C2204.07 402.937 2192.34 406.937 2184.34 411.203C2162.47 424.004 2147.27 430.404 2138.74 430.404C2130.2 430.404 2122.47 426.404 2115.54 418.404C2109.14 410.403 2105.94 398.137 2105.94 381.603C2105.94 364.536 2108.87 352.803 2114.74 346.403C2121.14 340.003 2131 333.603 2144.34 327.202C2190.74 304.802 2256.87 293.602 2342.74 293.602ZM2305.14 620.806C2328.61 620.806 2340.61 616.273 2341.14 607.206C2342.21 589.606 2342.74 566.405 2342.74 537.605C2342.74 526.405 2334.21 520.805 2317.14 520.805C2300.07 520.805 2286.2 525.071 2275.54 533.605C2264.87 541.605 2259.54 553.605 2259.54 569.605C2259.54 585.605 2263.8 598.139 2272.34 607.206C2281.4 616.273 2292.34 620.806 2305.14 620.806Z"/>
<path d="M3050.53 679.207L3051.33 484.004C3051.33 468.004 3047.33 456.004 3039.33 448.004C3031.33 440.004 3021.2 436.004 3008.93 436.004C2997.2 436.004 2986.27 440.27 2976.13 448.804C2966.53 456.804 2961.73 468.271 2961.73 483.204V532.005C2961.73 602.406 2960.13 650.406 2956.93 676.007C2955.33 685.073 2950.8 693.073 2943.33 700.007C2935.87 706.94 2922.53 711.207 2903.33 712.807C2884.67 713.874 2866 714.407 2847.33 714.407C2828.67 714.407 2796.93 713.34 2752.13 711.207C2739.33 710.674 2729.2 706.94 2721.73 700.007C2714.26 693.073 2710 685.073 2708.93 676.007C2705.2 641.339 2703.33 588.272 2703.33 516.805C2703.33 445.337 2704.4 396.537 2706.53 370.403C2708.66 343.736 2712.66 326.402 2718.53 318.402C2724.4 310.402 2736.4 306.402 2754.53 306.402H2910.53C2928.67 306.402 2940.67 310.402 2946.53 318.402C2952.93 326.402 2956.93 340.003 2958.53 359.203V360.003C2999.6 317.336 3049.47 296.002 3108.14 296.002C3167.34 296.002 3213.74 310.402 3247.34 339.203C3280.94 368.003 3298 407.737 3298.54 458.404C3299.6 509.071 3300.14 554.405 3300.14 594.406C3300.14 634.406 3299.87 661.34 3299.34 675.206C3298.8 689.073 3295.07 699.207 3288.14 705.607C3281.74 711.474 3268.94 714.407 3249.74 714.407L3096.14 716.007C3079.07 716.007 3067.07 713.074 3060.13 707.207C3053.73 700.807 3050.53 691.473 3050.53 679.207Z"/>
<path d="M3670.1 293.602C3843.97 293.602 3931.7 350.136 3933.3 463.204C3934.37 511.205 3934.9 555.205 3934.9 595.206C3934.9 635.206 3934.63 662.14 3934.1 676.007C3933.57 689.873 3929.83 700.007 3922.9 706.407C3916.5 712.274 3903.7 715.207 3884.5 715.207H3714.9C3697.83 715.207 3686.1 712.274 3679.7 706.407C3673.3 700.007 3669.83 690.673 3669.3 678.407C3669.3 677.873 3669.03 677.073 3668.5 676.007C3668.5 674.406 3668.5 673.073 3668.5 672.007C3633.3 708.274 3585.3 726.407 3524.5 726.407C3482.36 726.407 3446.36 716.007 3416.5 695.207C3387.16 673.873 3372.49 644.806 3372.49 608.006C3372.49 570.672 3382.89 541.072 3403.7 519.205C3425.03 496.804 3450.1 481.604 3478.9 473.604C3508.23 465.604 3539.43 461.604 3572.5 461.604C3606.1 461.604 3638.9 464.804 3670.9 471.204V468.004C3670.9 441.337 3665.56 422.137 3654.9 410.403C3644.76 398.67 3627.96 392.803 3604.5 392.803C3581.56 392.803 3562.36 394.937 3546.9 399.203C3531.43 402.937 3519.7 406.937 3511.7 411.203C3489.83 424.004 3474.63 430.404 3466.1 430.404C3457.56 430.404 3449.83 426.404 3442.9 418.404C3436.5 410.403 3433.3 398.137 3433.3 381.603C3433.3 364.536 3436.23 352.803 3442.1 346.403C3448.5 340.003 3458.36 333.603 3471.7 327.202C3518.1 304.802 3584.23 293.602 3670.1 293.602ZM3632.5 620.806C3655.96 620.806 3667.96 616.273 3668.5 607.206C3669.56 589.606 3670.1 566.405 3670.1 537.605C3670.1 526.405 3661.56 520.805 3644.5 520.805C3627.43 520.805 3613.56 525.071 3602.9 533.605C3592.23 541.605 3586.9 553.605 3586.9 569.605C3586.9 585.605 3591.16 598.139 3599.7 607.206C3608.76 616.273 3619.7 620.806 3632.5 620.806Z"/>
</mask>
<path d="M240.801 495.204L238.401 248.802C238.401 224.801 238.668 209.334 239.201 202.401C239.735 185.334 243.735 173.067 251.202 165.601C259.202 157.6 274.402 153.6 296.802 153.6H511.205C533.605 153.6 548.538 157.6 556.005 165.601C564.005 173.067 568.272 185.334 568.805 202.401C569.872 236.001 570.405 276.535 570.405 324.002C570.405 370.936 569.339 428.004 567.205 495.204C565.605 599.206 512.005 667.74 406.403 700.807C345.603 720.007 267.735 729.607 172.801 729.607C151.467 729.607 137.334 723.207 130.4 710.407C123.467 697.607 120 675.473 120 644.006C120 612.006 132.267 594.672 156.8 592.006C186.667 588.272 208.001 575.739 220.801 554.405C234.135 532.538 240.801 512.805 240.801 495.204Z" fill="#DB0007"/>
<path d="M909.753 341.603L908.953 536.805C908.953 552.272 912.42 564.005 919.353 572.005C926.287 580.005 935.087 584.005 945.754 584.005C956.954 584.005 967.354 580.005 976.954 572.005C987.087 563.472 994.287 552.005 998.554 537.605V488.804C998.554 418.404 1000.15 370.403 1003.35 344.803C1004.95 335.736 1009.49 327.736 1016.95 320.802C1024.42 313.869 1037.49 309.869 1056.15 308.802C1075.36 307.202 1094.29 306.402 1112.96 306.402C1131.62 306.402 1163.36 307.469 1208.16 309.602C1220.96 310.136 1231.09 313.869 1238.56 320.802C1246.02 327.736 1250.29 335.736 1251.36 344.803C1255.09 379.47 1256.96 432.804 1256.96 504.805C1256.96 576.272 1255.89 625.073 1253.76 651.206C1251.62 677.34 1247.62 694.407 1241.76 702.407C1235.89 710.407 1223.89 714.407 1205.76 714.407H1049.75C1031.62 714.407 1019.35 710.407 1012.95 702.407C1007.09 694.407 1003.35 680.807 1001.75 661.606V660.806C946.82 702.94 891.086 724.007 834.552 724.007C778.018 724.007 735.084 710.14 705.751 682.407C676.95 654.14 662.017 614.406 660.95 563.205C660.417 512.005 660.15 466.404 660.15 426.404C660.15 386.403 660.417 359.469 660.95 345.603C661.483 331.736 664.95 321.869 671.35 316.002C678.284 309.602 691.35 306.402 710.551 306.402L864.153 304.802C881.219 304.802 892.953 308.002 899.353 314.402C906.286 320.269 909.753 329.336 909.753 341.603Z" fill="#DB0007"/>
<path d="M1405.32 128.8H1558.92C1576.52 128.8 1588.25 133.067 1594.12 141.6C1599.98 149.6 1603.72 162.667 1605.32 180.801C1608.52 244.801 1610.12 333.336 1610.12 446.404C1610.12 558.938 1607.98 636.539 1603.72 679.207C1602.65 687.74 1598.38 695.473 1590.92 702.407C1583.45 709.34 1570.12 713.34 1550.92 714.407C1532.25 716.007 1510.12 716.807 1484.52 716.807C1458.92 716.807 1435.98 716.274 1415.72 715.207C1381.05 712.54 1362.91 700.54 1361.31 679.207C1355.98 632.806 1353.31 550.672 1353.31 432.804C1353.31 314.402 1355.45 230.401 1359.71 180.801C1361.31 162.667 1364.78 149.6 1370.11 141.6C1375.98 133.067 1387.71 128.8 1405.32 128.8Z" fill="#DB0007"/>
<path d="M1757.64 308.802H1913.65C1931.78 308.802 1943.78 312.802 1949.65 320.802C1956.05 328.802 1960.05 346.669 1961.65 374.403C1963.78 401.603 1964.85 451.737 1964.85 524.805C1964.85 597.339 1963.25 648.54 1960.05 678.407C1958.45 687.473 1953.91 695.473 1946.45 702.407C1938.98 709.34 1925.65 713.34 1906.45 714.407C1887.78 716.007 1865.38 716.807 1839.25 716.807C1813.11 716.807 1789.38 716.007 1768.04 714.407C1746.71 713.34 1732.31 709.34 1724.84 702.407C1717.38 695.473 1713.11 687.473 1712.04 678.407C1708.31 643.74 1706.44 590.672 1706.44 519.205C1706.44 447.204 1707.51 398.137 1709.64 372.003C1711.78 345.869 1715.78 328.802 1721.64 320.802C1727.51 312.802 1739.51 308.802 1757.64 308.802ZM1844.05 120C1879.25 120 1905.65 127.2 1923.25 141.6C1941.38 155.467 1950.45 174.667 1950.45 199.201C1950.45 256.802 1912.05 285.602 1835.25 285.602C1804.31 285.602 1777.91 278.935 1756.04 265.602C1734.18 252.268 1723.24 232.268 1723.24 205.601C1723.24 148.534 1763.51 120 1844.05 120Z" fill="#DB0007"/>
<path d="M2342.74 293.602C2516.61 293.602 2604.34 350.136 2605.94 463.204C2607.01 511.205 2607.54 555.205 2607.54 595.206C2607.54 635.206 2607.28 662.14 2606.74 676.007C2606.21 689.873 2602.48 700.007 2595.54 706.407C2589.14 712.274 2576.34 715.207 2557.14 715.207H2387.54C2370.47 715.207 2358.74 712.274 2352.34 706.407C2345.94 700.007 2342.47 690.673 2341.94 678.407C2341.94 677.873 2341.67 677.073 2341.14 676.007C2341.14 674.406 2341.14 673.073 2341.14 672.007C2305.94 708.274 2257.94 726.407 2197.14 726.407C2155 726.407 2119 716.007 2089.14 695.207C2059.8 673.873 2045.14 644.806 2045.14 608.006C2045.14 570.672 2055.54 541.072 2076.34 519.205C2097.67 496.804 2122.74 481.604 2151.54 473.604C2180.87 465.604 2212.07 461.604 2245.14 461.604C2278.74 461.604 2311.54 464.804 2343.54 471.204V468.004C2343.54 441.337 2338.21 422.137 2327.54 410.403C2317.41 398.67 2300.6 392.803 2277.14 392.803C2254.2 392.803 2235 394.937 2219.54 399.203C2204.07 402.937 2192.34 406.937 2184.34 411.203C2162.47 424.004 2147.27 430.404 2138.74 430.404C2130.2 430.404 2122.47 426.404 2115.54 418.404C2109.14 410.403 2105.94 398.137 2105.94 381.603C2105.94 364.536 2108.87 352.803 2114.74 346.403C2121.14 340.003 2131 333.603 2144.34 327.202C2190.74 304.802 2256.87 293.602 2342.74 293.602ZM2305.14 620.806C2328.61 620.806 2340.61 616.273 2341.14 607.206C2342.21 589.606 2342.74 566.405 2342.74 537.605C2342.74 526.405 2334.21 520.805 2317.14 520.805C2300.07 520.805 2286.2 525.071 2275.54 533.605C2264.87 541.605 2259.54 553.605 2259.54 569.605C2259.54 585.605 2263.8 598.139 2272.34 607.206C2281.4 616.273 2292.34 620.806 2305.14 620.806Z" fill="#DB0007"/>
<path d="M3050.53 679.207L3051.33 484.004C3051.33 468.004 3047.33 456.004 3039.33 448.004C3031.33 440.004 3021.2 436.004 3008.93 436.004C2997.2 436.004 2986.27 440.27 2976.13 448.804C2966.53 456.804 2961.73 468.271 2961.73 483.204V532.005C2961.73 602.406 2960.13 650.406 2956.93 676.007C2955.33 685.073 2950.8 693.073 2943.33 700.007C2935.87 706.94 2922.53 711.207 2903.33 712.807C2884.67 713.874 2866 714.407 2847.33 714.407C2828.67 714.407 2796.93 713.34 2752.13 711.207C2739.33 710.674 2729.2 706.94 2721.73 700.007C2714.26 693.073 2710 685.073 2708.93 676.007C2705.2 641.339 2703.33 588.272 2703.33 516.805C2703.33 445.337 2704.4 396.537 2706.53 370.403C2708.66 343.736 2712.66 326.402 2718.53 318.402C2724.4 310.402 2736.4 306.402 2754.53 306.402H2910.53C2928.67 306.402 2940.67 310.402 2946.53 318.402C2952.93 326.402 2956.93 340.003 2958.53 359.203V360.003C2999.6 317.336 3049.47 296.002 3108.14 296.002C3167.34 296.002 3213.74 310.402 3247.34 339.203C3280.94 368.003 3298 407.737 3298.54 458.404C3299.6 509.071 3300.14 554.405 3300.14 594.406C3300.14 634.406 3299.87 661.34 3299.34 675.206C3298.8 689.073 3295.07 699.207 3288.14 705.607C3281.74 711.474 3268.94 714.407 3249.74 714.407L3096.14 716.007C3079.07 716.007 3067.07 713.074 3060.13 707.207C3053.73 700.807 3050.53 691.473 3050.53 679.207Z" fill="#DB0007"/>
<path d="M3670.1 293.602C3843.97 293.602 3931.7 350.136 3933.3 463.204C3934.37 511.205 3934.9 555.205 3934.9 595.206C3934.9 635.206 3934.63 662.14 3934.1 676.007C3933.57 689.873 3929.83 700.007 3922.9 706.407C3916.5 712.274 3903.7 715.207 3884.5 715.207H3714.9C3697.83 715.207 3686.1 712.274 3679.7 706.407C3673.3 700.007 3669.83 690.673 3669.3 678.407C3669.3 677.873 3669.03 677.073 3668.5 676.007C3668.5 674.406 3668.5 673.073 3668.5 672.007C3633.3 708.274 3585.3 726.407 3524.5 726.407C3482.36 726.407 3446.36 716.007 3416.5 695.207C3387.16 673.873 3372.49 644.806 3372.49 608.006C3372.49 570.672 3382.89 541.072 3403.7 519.205C3425.03 496.804 3450.1 481.604 3478.9 473.604C3508.23 465.604 3539.43 461.604 3572.5 461.604C3606.1 461.604 3638.9 464.804 3670.9 471.204V468.004C3670.9 441.337 3665.56 422.137 3654.9 410.403C3644.76 398.67 3627.96 392.803 3604.5 392.803C3581.56 392.803 3562.36 394.937 3546.9 399.203C3531.43 402.937 3519.7 406.937 3511.7 411.203C3489.83 424.004 3474.63 430.404 3466.1 430.404C3457.56 430.404 3449.83 426.404 3442.9 418.404C3436.5 410.403 3433.3 398.137 3433.3 381.603C3433.3 364.536 3436.23 352.803 3442.1 346.403C3448.5 340.003 3458.36 333.603 3471.7 327.202C3518.1 304.802 3584.23 293.602 3670.1 293.602ZM3632.5 620.806C3655.96 620.806 3667.96 616.273 3668.5 607.206C3669.56 589.606 3670.1 566.405 3670.1 537.605C3670.1 526.405 3661.56 520.805 3644.5 520.805C3627.43 520.805 3613.56 525.071 3602.9 533.605C3592.23 541.605 3586.9 553.605 3586.9 569.605C3586.9 585.605 3591.16 598.139 3599.7 607.206C3608.76 616.273 3619.7 620.806 3632.5 620.806Z" fill="#DB0007"/>
<path d="M240.801 495.204L238.401 248.802C238.401 224.801 238.668 209.334 239.201 202.401C239.735 185.334 243.735 173.067 251.202 165.601C259.202 157.6 274.402 153.6 296.802 153.6H511.205C533.605 153.6 548.538 157.6 556.005 165.601C564.005 173.067 568.272 185.334 568.805 202.401C569.872 236.001 570.405 276.535 570.405 324.002C570.405 370.936 569.339 428.004 567.205 495.204C565.605 599.206 512.005 667.74 406.403 700.807C345.603 720.007 267.735 729.607 172.801 729.607C151.467 729.607 137.334 723.207 130.4 710.407C123.467 697.607 120 675.473 120 644.006C120 612.006 132.267 594.672 156.8 592.006C186.667 588.272 208.001 575.739 220.801 554.405C234.135 532.538 240.801 512.805 240.801 495.204Z" stroke="white" stroke-width="240" mask="url(#path-1-outside-1_28_49)"/>
<path d="M909.753 341.603L908.953 536.805C908.953 552.272 912.42 564.005 919.353 572.005C926.287 580.005 935.087 584.005 945.754 584.005C956.954 584.005 967.354 580.005 976.954 572.005C987.087 563.472 994.287 552.005 998.554 537.605V488.804C998.554 418.404 1000.15 370.403 1003.35 344.803C1004.95 335.736 1009.49 327.736 1016.95 320.802C1024.42 313.869 1037.49 309.869 1056.15 308.802C1075.36 307.202 1094.29 306.402 1112.96 306.402C1131.62 306.402 1163.36 307.469 1208.16 309.602C1220.96 310.136 1231.09 313.869 1238.56 320.802C1246.02 327.736 1250.29 335.736 1251.36 344.803C1255.09 379.47 1256.96 432.804 1256.96 504.805C1256.96 576.272 1255.89 625.073 1253.76 651.206C1251.62 677.34 1247.62 694.407 1241.76 702.407C1235.89 710.407 1223.89 714.407 1205.76 714.407H1049.75C1031.62 714.407 1019.35 710.407 1012.95 702.407C1007.09 694.407 1003.35 680.807 1001.75 661.606V660.806C946.82 702.94 891.086 724.007 834.552 724.007C778.018 724.007 735.084 710.14 705.751 682.407C676.95 654.14 662.017 614.406 660.95 563.205C660.417 512.005 660.15 466.404 660.15 426.404C660.15 386.403 660.417 359.469 660.95 345.603C661.483 331.736 664.95 321.869 671.35 316.002C678.284 309.602 691.35 306.402 710.551 306.402L864.153 304.802C881.219 304.802 892.953 308.002 899.353 314.402C906.286 320.269 909.753 329.336 909.753 341.603Z" stroke="white" stroke-width="240" mask="url(#path-1-outside-1_28_49)"/>
<path d="M1405.32 128.8H1558.92C1576.52 128.8 1588.25 133.067 1594.12 141.6C1599.98 149.6 1603.72 162.667 1605.32 180.801C1608.52 244.801 1610.12 333.336 1610.12 446.404C1610.12 558.938 1607.98 636.539 1603.72 679.207C1602.65 687.74 1598.38 695.473 1590.92 702.407C1583.45 709.34 1570.12 713.34 1550.92 714.407C1532.25 716.007 1510.12 716.807 1484.52 716.807C1458.92 716.807 1435.98 716.274 1415.72 715.207C1381.05 712.54 1362.91 700.54 1361.31 679.207C1355.98 632.806 1353.31 550.672 1353.31 432.804C1353.31 314.402 1355.45 230.401 1359.71 180.801C1361.31 162.667 1364.78 149.6 1370.11 141.6C1375.98 133.067 1387.71 128.8 1405.32 128.8Z" stroke="white" stroke-width="240" mask="url(#path-1-outside-1_28_49)"/>
<path d="M1757.64 308.802H1913.65C1931.78 308.802 1943.78 312.802 1949.65 320.802C1956.05 328.802 1960.05 346.669 1961.65 374.403C1963.78 401.603 1964.85 451.737 1964.85 524.805C1964.85 597.339 1963.25 648.54 1960.05 678.407C1958.45 687.473 1953.91 695.473 1946.45 702.407C1938.98 709.34 1925.65 713.34 1906.45 714.407C1887.78 716.007 1865.38 716.807 1839.25 716.807C1813.11 716.807 1789.38 716.007 1768.04 714.407C1746.71 713.34 1732.31 709.34 1724.84 702.407C1717.38 695.473 1713.11 687.473 1712.04 678.407C1708.31 643.74 1706.44 590.672 1706.44 519.205C1706.44 447.204 1707.51 398.137 1709.64 372.003C1711.78 345.869 1715.78 328.802 1721.64 320.802C1727.51 312.802 1739.51 308.802 1757.64 308.802ZM1844.05 120C1879.25 120 1905.65 127.2 1923.25 141.6C1941.38 155.467 1950.45 174.667 1950.45 199.201C1950.45 256.802 1912.05 285.602 1835.25 285.602C1804.31 285.602 1777.91 278.935 1756.04 265.602C1734.18 252.268 1723.24 232.268 1723.24 205.601C1723.24 148.534 1763.51 120 1844.05 120Z" stroke="white" stroke-width="240" mask="url(#path-1-outside-1_28_49)"/>
<path d="M2342.74 293.602C2516.61 293.602 2604.34 350.136 2605.94 463.204C2607.01 511.205 2607.54 555.205 2607.54 595.206C2607.54 635.206 2607.28 662.14 2606.74 676.007C2606.21 689.873 2602.48 700.007 2595.54 706.407C2589.14 712.274 2576.34 715.207 2557.14 715.207H2387.54C2370.47 715.207 2358.74 712.274 2352.34 706.407C2345.94 700.007 2342.47 690.673 2341.94 678.407C2341.94 677.873 2341.67 677.073 2341.14 676.007C2341.14 674.406 2341.14 673.073 2341.14 672.007C2305.94 708.274 2257.94 726.407 2197.14 726.407C2155 726.407 2119 716.007 2089.14 695.207C2059.8 673.873 2045.14 644.806 2045.14 608.006C2045.14 570.672 2055.54 541.072 2076.34 519.205C2097.67 496.804 2122.74 481.604 2151.54 473.604C2180.87 465.604 2212.07 461.604 2245.14 461.604C2278.74 461.604 2311.54 464.804 2343.54 471.204V468.004C2343.54 441.337 2338.21 422.137 2327.54 410.403C2317.41 398.67 2300.6 392.803 2277.14 392.803C2254.2 392.803 2235 394.937 2219.54 399.203C2204.07 402.937 2192.34 406.937 2184.34 411.203C2162.47 424.004 2147.27 430.404 2138.74 430.404C2130.2 430.404 2122.47 426.404 2115.54 418.404C2109.14 410.403 2105.94 398.137 2105.94 381.603C2105.94 364.536 2108.87 352.803 2114.74 346.403C2121.14 340.003 2131 333.603 2144.34 327.202C2190.74 304.802 2256.87 293.602 2342.74 293.602ZM2305.14 620.806C2328.61 620.806 2340.61 616.273 2341.14 607.206C2342.21 589.606 2342.74 566.405 2342.74 537.605C2342.74 526.405 2334.21 520.805 2317.14 520.805C2300.07 520.805 2286.2 525.071 2275.54 533.605C2264.87 541.605 2259.54 553.605 2259.54 569.605C2259.54 585.605 2263.8 598.139 2272.34 607.206C2281.4 616.273 2292.34 620.806 2305.14 620.806Z" stroke="white" stroke-width="240" mask="url(#path-1-outside-1_28_49)"/>
<path d="M3050.53 679.207L3051.33 484.004C3051.33 468.004 3047.33 456.004 3039.33 448.004C3031.33 440.004 3021.2 436.004 3008.93 436.004C2997.2 436.004 2986.27 440.27 2976.13 448.804C2966.53 456.804 2961.73 468.271 2961.73 483.204V532.005C2961.73 602.406 2960.13 650.406 2956.93 676.007C2955.33 685.073 2950.8 693.073 2943.33 700.007C2935.87 706.94 2922.53 711.207 2903.33 712.807C2884.67 713.874 2866 714.407 2847.33 714.407C2828.67 714.407 2796.93 713.34 2752.13 711.207C2739.33 710.674 2729.2 706.94 2721.73 700.007C2714.26 693.073 2710 685.073 2708.93 676.007C2705.2 641.339 2703.33 588.272 2703.33 516.805C2703.33 445.337 2704.4 396.537 2706.53 370.403C2708.66 343.736 2712.66 326.402 2718.53 318.402C2724.4 310.402 2736.4 306.402 2754.53 306.402H2910.53C2928.67 306.402 2940.67 310.402 2946.53 318.402C2952.93 326.402 2956.93 340.003 2958.53 359.203V360.003C2999.6 317.336 3049.47 296.002 3108.14 296.002C3167.34 296.002 3213.74 310.402 3247.34 339.203C3280.94 368.003 3298 407.737 3298.54 458.404C3299.6 509.071 3300.14 554.405 3300.14 594.406C3300.14 634.406 3299.87 661.34 3299.34 675.206C3298.8 689.073 3295.07 699.207 3288.14 705.607C3281.74 711.474 3268.94 714.407 3249.74 714.407L3096.14 716.007C3079.07 716.007 3067.07 713.074 3060.13 707.207C3053.73 700.807 3050.53 691.473 3050.53 679.207Z" stroke="white" stroke-width="240" mask="url(#path-1-outside-1_28_49)"/>
<path d="M3670.1 293.602C3843.97 293.602 3931.7 350.136 3933.3 463.204C3934.37 511.205 3934.9 555.205 3934.9 595.206C3934.9 635.206 3934.63 662.14 3934.1 676.007C3933.57 689.873 3929.83 700.007 3922.9 706.407C3916.5 712.274 3903.7 715.207 3884.5 715.207H3714.9C3697.83 715.207 3686.1 712.274 3679.7 706.407C3673.3 700.007 3669.83 690.673 3669.3 678.407C3669.3 677.873 3669.03 677.073 3668.5 676.007C3668.5 674.406 3668.5 673.073 3668.5 672.007C3633.3 708.274 3585.3 726.407 3524.5 726.407C3482.36 726.407 3446.36 716.007 3416.5 695.207C3387.16 673.873 3372.49 644.806 3372.49 608.006C3372.49 570.672 3382.89 541.072 3403.7 519.205C3425.03 496.804 3450.1 481.604 3478.9 473.604C3508.23 465.604 3539.43 461.604 3572.5 461.604C3606.1 461.604 3638.9 464.804 3670.9 471.204V468.004C3670.9 441.337 3665.56 422.137 3654.9 410.403C3644.76 398.67 3627.96 392.803 3604.5 392.803C3581.56 392.803 3562.36 394.937 3546.9 399.203C3531.43 402.937 3519.7 406.937 3511.7 411.203C3489.83 424.004 3474.63 430.404 3466.1 430.404C3457.56 430.404 3449.83 426.404 3442.9 418.404C3436.5 410.403 3433.3 398.137 3433.3 381.603C3433.3 364.536 3436.23 352.803 3442.1 346.403C3448.5 340.003 3458.36 333.603 3471.7 327.202C3518.1 304.802 3584.23 293.602 3670.1 293.602ZM3632.5 620.806C3655.96 620.806 3667.96 616.273 3668.5 607.206C3669.56 589.606 3670.1 566.405 3670.1 537.605C3670.1 526.405 3661.56 520.805 3644.5 520.805C3627.43 520.805 3613.56 525.071 3602.9 533.605C3592.23 541.605 3586.9 553.605 3586.9 569.605C3586.9 585.605 3591.16 598.139 3599.7 607.206C3608.76 616.273 3619.7 620.806 3632.5 620.806Z" stroke="white" stroke-width="240" mask="url(#path-1-outside-1_28_49)"/>
<mask id="path-2-outside-2_28_49" maskUnits="userSpaceOnUse" x="1700.04" y="770.295" width="2291" height="509" fill="black">
<rect fill="white" x="1700.04" y="770.295" width="2291" height="509"/>
<path d="M1967.31 1043.89C1967.31 1066.24 1961.29 1085.69 1949.26 1102.25C1937.38 1118.81 1920.67 1131.16 1899.1 1139.28C1877.54 1147.41 1851.6 1151.47 1821.29 1151.47C1786.13 1151.47 1753.94 1145.53 1724.73 1133.66V1041.55C1738.79 1051.86 1754.34 1060.22 1771.37 1066.63C1788.4 1072.88 1804.26 1076 1818.95 1076C1830.04 1076 1838.63 1074.05 1844.73 1070.14C1850.82 1066.08 1853.87 1060.22 1853.87 1052.56C1853.87 1047.09 1852.31 1042.33 1849.18 1038.27C1846.21 1034.05 1841.6 1030.14 1835.35 1026.55C1829.26 1022.95 1817.85 1018.03 1801.13 1011.78C1747.07 991 1720.04 957.406 1720.04 910.999C1720.04 878.499 1732.38 852.561 1757.07 833.186C1781.76 813.655 1814.88 803.889 1856.45 803.889C1868.16 803.889 1878.95 804.358 1888.79 805.295C1898.63 806.233 1907.54 807.404 1915.51 808.811C1923.63 810.217 1934.96 812.873 1949.49 816.78V902.327C1921.21 886.859 1893.4 879.124 1866.06 879.124C1854.81 879.124 1845.74 881.233 1838.87 885.452C1831.99 889.671 1828.55 895.452 1828.55 902.796C1828.55 909.828 1831.29 915.687 1836.76 920.375C1842.38 924.906 1854.02 930.843 1871.68 938.187C1906.52 952.25 1931.13 967.641 1945.51 984.36C1960.04 1001.08 1967.31 1020.92 1967.31 1043.89Z"/>
<path d="M2156.54 1145.61V1109.05H2155.61C2139.67 1137.33 2115.29 1151.47 2082.48 1151.47C2059.82 1151.47 2042.09 1144.75 2029.28 1131.31C2016.46 1117.88 2010.06 1099.91 2010.06 1077.41C2010.06 1030.22 2039.04 1002.88 2097.01 995.375L2156.54 987.641C2156.54 979.828 2153.03 973.422 2146 968.422C2138.96 963.422 2129.51 960.922 2117.64 960.922C2090.76 960.922 2062.4 968.578 2032.56 983.891V918.968C2045.53 913.343 2061.78 908.734 2081.31 905.14C2100.84 901.546 2117.56 899.749 2131.46 899.749C2172.25 899.749 2201.78 908.499 2220.06 926C2238.5 943.344 2247.72 972.406 2247.72 1013.19V1145.61H2156.54ZM2097.48 1064.05C2097.48 1070.61 2099.51 1076 2103.57 1080.22C2107.79 1084.44 2113.73 1086.55 2121.39 1086.55C2131.86 1086.55 2140.29 1082.64 2146.7 1074.83C2153.26 1067.02 2156.54 1057.02 2156.54 1044.83V1035.69L2122.79 1040.38C2105.92 1043.19 2097.48 1051.08 2097.48 1064.05Z"/>
<path d="M2316.95 1145.61V790.295H2416.8V1145.61H2316.95Z"/>
<path d="M2749.24 1112.1C2749.24 1158.19 2734.71 1194.05 2705.64 1219.67C2676.74 1245.46 2634.47 1258.35 2578.84 1258.35C2563.84 1258.35 2549.31 1257.18 2535.25 1254.83C2521.19 1252.49 2511.11 1249.83 2505.02 1246.86V1168.58C2515.02 1174.83 2526.73 1179.83 2540.17 1183.58C2553.61 1187.33 2565.56 1189.21 2576.03 1189.21C2598.38 1189.21 2616.27 1183.82 2629.7 1173.03C2643.14 1162.25 2649.86 1147.96 2649.86 1130.14V1115.38H2648.92C2641.74 1126.31 2631.81 1135.06 2619.16 1141.63C2606.66 1148.19 2593.22 1151.47 2578.84 1151.47C2547.91 1151.47 2523.45 1140.77 2505.48 1119.36C2487.52 1097.8 2478.53 1068.11 2478.53 1030.3C2478.53 1004.36 2483.22 981.469 2492.59 961.625C2501.97 941.781 2515.02 926.547 2531.74 915.921C2548.45 905.14 2566.89 899.749 2587.05 899.749C2614.7 899.749 2635.33 909.984 2648.92 930.453H2649.86V905.609H2749.24V1112.1ZM2651.5 1018.81C2651.5 1004.75 2648.3 993.579 2641.89 985.297C2635.64 977.016 2627.28 972.875 2616.81 972.875C2605.56 972.875 2596.58 977.875 2589.86 987.875C2583.14 997.875 2579.78 1011.24 2579.78 1027.95C2579.78 1043.42 2582.6 1055.69 2588.22 1064.75C2593.85 1073.81 2602.75 1078.35 2614.94 1078.35C2626.35 1078.35 2635.25 1073.74 2641.66 1064.52C2648.22 1055.14 2651.5 1042.64 2651.5 1027.02V1018.81Z"/>
<path d="M2954.65 1145.61V1109.05H2953.71C2937.77 1137.33 2913.4 1151.47 2880.58 1151.47C2857.93 1151.47 2840.19 1144.75 2827.38 1131.31C2814.57 1117.88 2808.16 1099.91 2808.16 1077.41C2808.16 1030.22 2837.14 1002.88 2895.11 995.375L2954.65 987.641C2954.65 979.828 2951.13 973.422 2944.1 968.422C2937.07 963.422 2927.61 960.922 2915.74 960.922C2888.86 960.922 2860.5 968.578 2830.66 983.891V918.968C2843.63 913.343 2859.88 908.734 2879.41 905.14C2898.94 901.546 2915.66 899.749 2929.57 899.749C2970.35 899.749 2999.88 908.499 3018.16 926C3036.6 943.344 3045.82 972.406 3045.82 1013.19V1145.61H2954.65ZM2895.58 1064.05C2895.58 1070.61 2897.61 1076 2901.68 1080.22C2905.9 1084.44 2911.83 1086.55 2919.49 1086.55C2929.96 1086.55 2938.4 1082.64 2944.8 1074.83C2951.36 1067.02 2954.65 1057.02 2954.65 1044.83V1035.69L2920.9 1040.38C2904.02 1043.19 2895.58 1051.08 2895.58 1064.05Z"/>
<path d="M3275.37 1145.61V1117.72H3274.43C3266.46 1128.19 3256.07 1136.47 3243.26 1142.56C3230.45 1148.5 3217.79 1151.47 3205.29 1151.47C3184.82 1151.47 3166.77 1146.47 3151.15 1136.47C3135.52 1126.31 3123.8 1112.17 3115.99 1094.05C3108.34 1075.92 3104.51 1054.52 3104.51 1029.83C3104.51 1004.36 3109.12 981.782 3118.34 962.094C3127.55 942.406 3140.52 927.093 3157.24 916.156C3173.96 905.218 3192.71 899.749 3213.49 899.749C3223.34 899.749 3232.4 901.156 3240.68 903.968C3249.12 906.781 3256.38 910.609 3262.48 915.453C3268.73 920.14 3272.71 924.828 3274.43 929.515H3275.37V790.295H3375.21V1145.61H3275.37ZM3277.48 1018.34C3277.48 1003.97 3274.28 992.797 3267.87 984.828C3261.62 976.86 3253.1 972.875 3242.32 972.875C3231.54 972.875 3222.71 977.875 3215.84 987.875C3209.12 997.719 3205.76 1010.92 3205.76 1027.49C3205.76 1061.39 3217.48 1078.35 3240.92 1078.35C3252.01 1078.35 3260.84 1073.81 3267.4 1064.75C3274.12 1055.53 3277.48 1042.17 3277.48 1024.67V1018.34Z"/>
<path d="M3714.45 1021.39C3714.45 1061.86 3702.19 1093.66 3677.65 1116.78C3653.28 1139.91 3619.14 1151.47 3575.23 1151.47C3531.64 1151.47 3497.65 1140.22 3473.28 1117.72C3449.06 1095.06 3436.95 1063.89 3436.95 1024.2C3436.95 998.735 3442.65 976.625 3454.06 957.875C3465.46 939.125 3481.71 924.75 3502.81 914.75C3523.9 904.749 3548.2 899.749 3575.7 899.749C3604.14 899.749 3628.75 904.984 3649.53 915.453C3670.47 925.922 3686.48 940.453 3697.58 959.047C3708.83 977.641 3714.45 998.422 3714.45 1021.39ZM3613.2 1021.86C3613.2 989.203 3600.7 972.875 3575.7 972.875C3550.7 972.875 3538.2 989.985 3538.2 1024.2C3538.2 1060.3 3550.86 1078.35 3576.17 1078.35C3600.86 1078.35 3613.2 1059.52 3613.2 1021.86Z"/>
<path d="M3970.72 1065.92C3970.72 1093.11 3960.33 1114.2 3939.55 1129.21C3918.92 1144.05 3890.09 1151.47 3853.06 1151.47C3842.28 1151.47 3828.92 1150.38 3812.98 1148.19C3797.2 1146 3784.31 1143.35 3774.31 1140.22V1070.14C3803.84 1083.27 3828.53 1089.83 3848.38 1089.83C3867.91 1089.83 3877.67 1084.75 3877.67 1074.6C3877.67 1070.38 3875.41 1066.94 3870.88 1064.28C3866.34 1061.47 3854.47 1056.86 3835.25 1050.45C3814 1043.74 3798.53 1034.83 3788.84 1023.74C3779.16 1012.64 3774.31 998.188 3774.31 980.375C3774.31 955.531 3784.16 935.922 3803.84 921.546C3823.69 907.015 3851.5 899.749 3887.28 899.749C3908.22 899.749 3930.41 902.796 3953.85 908.89V976.156C3944 971.938 3933.22 968.422 3921.5 965.609C3909.78 962.797 3899.94 961.391 3891.97 961.391C3885.41 961.391 3880.17 962.484 3876.27 964.672C3872.36 966.859 3870.41 969.906 3870.41 973.813C3870.41 978.344 3872.52 982.016 3876.74 984.828C3880.95 987.641 3889.39 991 3902.05 994.907C3926.58 1002.09 3944.16 1011.31 3954.78 1022.56C3965.41 1033.81 3970.72 1048.27 3970.72 1065.92Z"/>
</mask>
<path d="M1967.31 1043.89C1967.31 1066.24 1961.29 1085.69 1949.26 1102.25C1937.38 1118.81 1920.67 1131.16 1899.1 1139.28C1877.54 1147.41 1851.6 1151.47 1821.29 1151.47C1786.13 1151.47 1753.94 1145.53 1724.73 1133.66V1041.55C1738.79 1051.86 1754.34 1060.22 1771.37 1066.63C1788.4 1072.88 1804.26 1076 1818.95 1076C1830.04 1076 1838.63 1074.05 1844.73 1070.14C1850.82 1066.08 1853.87 1060.22 1853.87 1052.56C1853.87 1047.09 1852.31 1042.33 1849.18 1038.27C1846.21 1034.05 1841.6 1030.14 1835.35 1026.55C1829.26 1022.95 1817.85 1018.03 1801.13 1011.78C1747.07 991 1720.04 957.406 1720.04 910.999C1720.04 878.499 1732.38 852.561 1757.07 833.186C1781.76 813.655 1814.88 803.889 1856.45 803.889C1868.16 803.889 1878.95 804.358 1888.79 805.295C1898.63 806.233 1907.54 807.404 1915.51 808.811C1923.63 810.217 1934.96 812.873 1949.49 816.78V902.327C1921.21 886.859 1893.4 879.124 1866.06 879.124C1854.81 879.124 1845.74 881.233 1838.87 885.452C1831.99 889.671 1828.55 895.452 1828.55 902.796C1828.55 909.828 1831.29 915.687 1836.76 920.375C1842.38 924.906 1854.02 930.843 1871.68 938.187C1906.52 952.25 1931.13 967.641 1945.51 984.36C1960.04 1001.08 1967.31 1020.92 1967.31 1043.89Z" fill="white"/>
<path d="M2156.54 1145.61V1109.05H2155.61C2139.67 1137.33 2115.29 1151.47 2082.48 1151.47C2059.82 1151.47 2042.09 1144.75 2029.28 1131.31C2016.46 1117.88 2010.06 1099.91 2010.06 1077.41C2010.06 1030.22 2039.04 1002.88 2097.01 995.375L2156.54 987.641C2156.54 979.828 2153.03 973.422 2146 968.422C2138.96 963.422 2129.51 960.922 2117.64 960.922C2090.76 960.922 2062.4 968.578 2032.56 983.891V918.968C2045.53 913.343 2061.78 908.734 2081.31 905.14C2100.84 901.546 2117.56 899.749 2131.46 899.749C2172.25 899.749 2201.78 908.499 2220.06 926C2238.5 943.344 2247.72 972.406 2247.72 1013.19V1145.61H2156.54ZM2097.48 1064.05C2097.48 1070.61 2099.51 1076 2103.57 1080.22C2107.79 1084.44 2113.73 1086.55 2121.39 1086.55C2131.86 1086.55 2140.29 1082.64 2146.7 1074.83C2153.26 1067.02 2156.54 1057.02 2156.54 1044.83V1035.69L2122.79 1040.38C2105.92 1043.19 2097.48 1051.08 2097.48 1064.05Z" fill="white"/>
<path d="M2316.95 1145.61V790.295H2416.8V1145.61H2316.95Z" fill="white"/>
<path d="M2749.24 1112.1C2749.24 1158.19 2734.71 1194.05 2705.64 1219.67C2676.74 1245.46 2634.47 1258.35 2578.84 1258.35C2563.84 1258.35 2549.31 1257.18 2535.25 1254.83C2521.19 1252.49 2511.11 1249.83 2505.02 1246.86V1168.58C2515.02 1174.83 2526.73 1179.83 2540.17 1183.58C2553.61 1187.33 2565.56 1189.21 2576.03 1189.21C2598.38 1189.21 2616.27 1183.82 2629.7 1173.03C2643.14 1162.25 2649.86 1147.96 2649.86 1130.14V1115.38H2648.92C2641.74 1126.31 2631.81 1135.06 2619.16 1141.63C2606.66 1148.19 2593.22 1151.47 2578.84 1151.47C2547.91 1151.47 2523.45 1140.77 2505.48 1119.36C2487.52 1097.8 2478.53 1068.11 2478.53 1030.3C2478.53 1004.36 2483.22 981.469 2492.59 961.625C2501.97 941.781 2515.02 926.547 2531.74 915.921C2548.45 905.14 2566.89 899.749 2587.05 899.749C2614.7 899.749 2635.33 909.984 2648.92 930.453H2649.86V905.609H2749.24V1112.1ZM2651.5 1018.81C2651.5 1004.75 2648.3 993.579 2641.89 985.297C2635.64 977.016 2627.28 972.875 2616.81 972.875C2605.56 972.875 2596.58 977.875 2589.86 987.875C2583.14 997.875 2579.78 1011.24 2579.78 1027.95C2579.78 1043.42 2582.6 1055.69 2588.22 1064.75C2593.85 1073.81 2602.75 1078.35 2614.94 1078.35C2626.35 1078.35 2635.25 1073.74 2641.66 1064.52C2648.22 1055.14 2651.5 1042.64 2651.5 1027.02V1018.81Z" fill="white"/>
<path d="M2954.65 1145.61V1109.05H2953.71C2937.77 1137.33 2913.4 1151.47 2880.58 1151.47C2857.93 1151.47 2840.19 1144.75 2827.38 1131.31C2814.57 1117.88 2808.16 1099.91 2808.16 1077.41C2808.16 1030.22 2837.14 1002.88 2895.11 995.375L2954.65 987.641C2954.65 979.828 2951.13 973.422 2944.1 968.422C2937.07 963.422 2927.61 960.922 2915.74 960.922C2888.86 960.922 2860.5 968.578 2830.66 983.891V918.968C2843.63 913.343 2859.88 908.734 2879.41 905.14C2898.94 901.546 2915.66 899.749 2929.57 899.749C2970.35 899.749 2999.88 908.499 3018.16 926C3036.6 943.344 3045.82 972.406 3045.82 1013.19V1145.61H2954.65ZM2895.58 1064.05C2895.58 1070.61 2897.61 1076 2901.68 1080.22C2905.9 1084.44 2911.83 1086.55 2919.49 1086.55C2929.96 1086.55 2938.4 1082.64 2944.8 1074.83C2951.36 1067.02 2954.65 1057.02 2954.65 1044.83V1035.69L2920.9 1040.38C2904.02 1043.19 2895.58 1051.08 2895.58 1064.05Z" fill="white"/>
<path d="M3275.37 1145.61V1117.72H3274.43C3266.46 1128.19 3256.07 1136.47 3243.26 1142.56C3230.45 1148.5 3217.79 1151.47 3205.29 1151.47C3184.82 1151.47 3166.77 1146.47 3151.15 1136.47C3135.52 1126.31 3123.8 1112.17 3115.99 1094.05C3108.34 1075.92 3104.51 1054.52 3104.51 1029.83C3104.51 1004.36 3109.12 981.782 3118.34 962.094C3127.55 942.406 3140.52 927.093 3157.24 916.156C3173.96 905.218 3192.71 899.749 3213.49 899.749C3223.34 899.749 3232.4 901.156 3240.68 903.968C3249.12 906.781 3256.38 910.609 3262.48 915.453C3268.73 920.14 3272.71 924.828 3274.43 929.515H3275.37V790.295H3375.21V1145.61H3275.37ZM3277.48 1018.34C3277.48 1003.97 3274.28 992.797 3267.87 984.828C3261.62 976.86 3253.1 972.875 3242.32 972.875C3231.54 972.875 3222.71 977.875 3215.84 987.875C3209.12 997.719 3205.76 1010.92 3205.76 1027.49C3205.76 1061.39 3217.48 1078.35 3240.92 1078.35C3252.01 1078.35 3260.84 1073.81 3267.4 1064.75C3274.12 1055.53 3277.48 1042.17 3277.48 1024.67V1018.34Z" fill="white"/>
<path d="M3714.45 1021.39C3714.45 1061.86 3702.19 1093.66 3677.65 1116.78C3653.28 1139.91 3619.14 1151.47 3575.23 1151.47C3531.64 1151.47 3497.65 1140.22 3473.28 1117.72C3449.06 1095.06 3436.95 1063.89 3436.95 1024.2C3436.95 998.735 3442.65 976.625 3454.06 957.875C3465.46 939.125 3481.71 924.75 3502.81 914.75C3523.9 904.749 3548.2 899.749 3575.7 899.749C3604.14 899.749 3628.75 904.984 3649.53 915.453C3670.47 925.922 3686.48 940.453 3697.58 959.047C3708.83 977.641 3714.45 998.422 3714.45 1021.39ZM3613.2 1021.86C3613.2 989.203 3600.7 972.875 3575.7 972.875C3550.7 972.875 3538.2 989.985 3538.2 1024.2C3538.2 1060.3 3550.86 1078.35 3576.17 1078.35C3600.86 1078.35 3613.2 1059.52 3613.2 1021.86Z" fill="white"/>
<path d="M3970.72 1065.92C3970.72 1093.11 3960.33 1114.2 3939.55 1129.21C3918.92 1144.05 3890.09 1151.47 3853.06 1151.47C3842.28 1151.47 3828.92 1150.38 3812.98 1148.19C3797.2 1146 3784.31 1143.35 3774.31 1140.22V1070.14C3803.84 1083.27 3828.53 1089.83 3848.38 1089.83C3867.91 1089.83 3877.67 1084.75 3877.67 1074.6C3877.67 1070.38 3875.41 1066.94 3870.88 1064.28C3866.34 1061.47 3854.47 1056.86 3835.25 1050.45C3814 1043.74 3798.53 1034.83 3788.84 1023.74C3779.16 1012.64 3774.31 998.188 3774.31 980.375C3774.31 955.531 3784.16 935.922 3803.84 921.546C3823.69 907.015 3851.5 899.749 3887.28 899.749C3908.22 899.749 3930.41 902.796 3953.85 908.89V976.156C3944 971.938 3933.22 968.422 3921.5 965.609C3909.78 962.797 3899.94 961.391 3891.97 961.391C3885.41 961.391 3880.17 962.484 3876.27 964.672C3872.36 966.859 3870.41 969.906 3870.41 973.813C3870.41 978.344 3872.52 982.016 3876.74 984.828C3880.95 987.641 3889.39 991 3902.05 994.907C3926.58 1002.09 3944.16 1011.31 3954.78 1022.56C3965.41 1033.81 3970.72 1048.27 3970.72 1065.92Z" fill="white"/>
<path d="M1967.31 1043.89C1967.31 1066.24 1961.29 1085.69 1949.26 1102.25C1937.38 1118.81 1920.67 1131.16 1899.1 1139.28C1877.54 1147.41 1851.6 1151.47 1821.29 1151.47C1786.13 1151.47 1753.94 1145.53 1724.73 1133.66V1041.55C1738.79 1051.86 1754.34 1060.22 1771.37 1066.63C1788.4 1072.88 1804.26 1076 1818.95 1076C1830.04 1076 1838.63 1074.05 1844.73 1070.14C1850.82 1066.08 1853.87 1060.22 1853.87 1052.56C1853.87 1047.09 1852.31 1042.33 1849.18 1038.27C1846.21 1034.05 1841.6 1030.14 1835.35 1026.55C1829.26 1022.95 1817.85 1018.03 1801.13 1011.78C1747.07 991 1720.04 957.406 1720.04 910.999C1720.04 878.499 1732.38 852.561 1757.07 833.186C1781.76 813.655 1814.88 803.889 1856.45 803.889C1868.16 803.889 1878.95 804.358 1888.79 805.295C1898.63 806.233 1907.54 807.404 1915.51 808.811C1923.63 810.217 1934.96 812.873 1949.49 816.78V902.327C1921.21 886.859 1893.4 879.124 1866.06 879.124C1854.81 879.124 1845.74 881.233 1838.87 885.452C1831.99 889.671 1828.55 895.452 1828.55 902.796C1828.55 909.828 1831.29 915.687 1836.76 920.375C1842.38 924.906 1854.02 930.843 1871.68 938.187C1906.52 952.25 1931.13 967.641 1945.51 984.36C1960.04 1001.08 1967.31 1020.92 1967.31 1043.89Z" stroke="#DB0007" stroke-width="40" mask="url(#path-2-outside-2_28_49)"/>
<path d="M2156.54 1145.61V1109.05H2155.61C2139.67 1137.33 2115.29 1151.47 2082.48 1151.47C2059.82 1151.47 2042.09 1144.75 2029.28 1131.31C2016.46 1117.88 2010.06 1099.91 2010.06 1077.41C2010.06 1030.22 2039.04 1002.88 2097.01 995.375L2156.54 987.641C2156.54 979.828 2153.03 973.422 2146 968.422C2138.96 963.422 2129.51 960.922 2117.64 960.922C2090.76 960.922 2062.4 968.578 2032.56 983.891V918.968C2045.53 913.343 2061.78 908.734 2081.31 905.14C2100.84 901.546 2117.56 899.749 2131.46 899.749C2172.25 899.749 2201.78 908.499 2220.06 926C2238.5 943.344 2247.72 972.406 2247.72 1013.19V1145.61H2156.54ZM2097.48 1064.05C2097.48 1070.61 2099.51 1076 2103.57 1080.22C2107.79 1084.44 2113.73 1086.55 2121.39 1086.55C2131.86 1086.55 2140.29 1082.64 2146.7 1074.83C2153.26 1067.02 2156.54 1057.02 2156.54 1044.83V1035.69L2122.79 1040.38C2105.92 1043.19 2097.48 1051.08 2097.48 1064.05Z" stroke="#DB0007" stroke-width="40" mask="url(#path-2-outside-2_28_49)"/>
<path d="M2316.95 1145.61V790.295H2416.8V1145.61H2316.95Z" stroke="#DB0007" stroke-width="40" mask="url(#path-2-outside-2_28_49)"/>
<path d="M2749.24 1112.1C2749.24 1158.19 2734.71 1194.05 2705.64 1219.67C2676.74 1245.46 2634.47 1258.35 2578.84 1258.35C2563.84 1258.35 2549.31 1257.18 2535.25 1254.83C2521.19 1252.49 2511.11 1249.83 2505.02 1246.86V1168.58C2515.02 1174.83 2526.73 1179.83 2540.17 1183.58C2553.61 1187.33 2565.56 1189.21 2576.03 1189.21C2598.38 1189.21 2616.27 1183.82 2629.7 1173.03C2643.14 1162.25 2649.86 1147.96 2649.86 1130.14V1115.38H2648.92C2641.74 1126.31 2631.81 1135.06 2619.16 1141.63C2606.66 1148.19 2593.22 1151.47 2578.84 1151.47C2547.91 1151.47 2523.45 1140.77 2505.48 1119.36C2487.52 1097.8 2478.53 1068.11 2478.53 1030.3C2478.53 1004.36 2483.22 981.469 2492.59 961.625C2501.97 941.781 2515.02 926.547 2531.74 915.921C2548.45 905.14 2566.89 899.749 2587.05 899.749C2614.7 899.749 2635.33 909.984 2648.92 930.453H2649.86V905.609H2749.24V1112.1ZM2651.5 1018.81C2651.5 1004.75 2648.3 993.579 2641.89 985.297C2635.64 977.016 2627.28 972.875 2616.81 972.875C2605.56 972.875 2596.58 977.875 2589.86 987.875C2583.14 997.875 2579.78 1011.24 2579.78 1027.95C2579.78 1043.42 2582.6 1055.69 2588.22 1064.75C2593.85 1073.81 2602.75 1078.35 2614.94 1078.35C2626.35 1078.35 2635.25 1073.74 2641.66 1064.52C2648.22 1055.14 2651.5 1042.64 2651.5 1027.02V1018.81Z" stroke="#DB0007" stroke-width="40" mask="url(#path-2-outside-2_28_49)"/>
<path d="M2954.65 1145.61V1109.05H2953.71C2937.77 1137.33 2913.4 1151.47 2880.58 1151.47C2857.93 1151.47 2840.19 1144.75 2827.38 1131.31C2814.57 1117.88 2808.16 1099.91 2808.16 1077.41C2808.16 1030.22 2837.14 1002.88 2895.11 995.375L2954.65 987.641C2954.65 979.828 2951.13 973.422 2944.1 968.422C2937.07 963.422 2927.61 960.922 2915.74 960.922C2888.86 960.922 2860.5 968.578 2830.66 983.891V918.968C2843.63 913.343 2859.88 908.734 2879.41 905.14C2898.94 901.546 2915.66 899.749 2929.57 899.749C2970.35 899.749 2999.88 908.499 3018.16 926C3036.6 943.344 3045.82 972.406 3045.82 1013.19V1145.61H2954.65ZM2895.58 1064.05C2895.58 1070.61 2897.61 1076 2901.68 1080.22C2905.9 1084.44 2911.83 1086.55 2919.49 1086.55C2929.96 1086.55 2938.4 1082.64 2944.8 1074.83C2951.36 1067.02 2954.65 1057.02 2954.65 1044.83V1035.69L2920.9 1040.38C2904.02 1043.19 2895.58 1051.08 2895.58 1064.05Z" stroke="#DB0007" stroke-width="40" mask="url(#path-2-outside-2_28_49)"/>
<path d="M3275.37 1145.61V1117.72H3274.43C3266.46 1128.19 3256.07 1136.47 3243.26 1142.56C3230.45 1148.5 3217.79 1151.47 3205.29 1151.47C3184.82 1151.47 3166.77 1146.47 3151.15 1136.47C3135.52 1126.31 3123.8 1112.17 3115.99 1094.05C3108.34 1075.92 3104.51 1054.52 3104.51 1029.83C3104.51 1004.36 3109.12 981.782 3118.34 962.094C3127.55 942.406 3140.52 927.093 3157.24 916.156C3173.96 905.218 3192.71 899.749 3213.49 899.749C3223.34 899.749 3232.4 901.156 3240.68 903.968C3249.12 906.781 3256.38 910.609 3262.48 915.453C3268.73 920.14 3272.71 924.828 3274.43 929.515H3275.37V790.295H3375.21V1145.61H3275.37ZM3277.48 1018.34C3277.48 1003.97 3274.28 992.797 3267.87 984.828C3261.62 976.86 3253.1 972.875 3242.32 972.875C3231.54 972.875 3222.71 977.875 3215.84 987.875C3209.12 997.719 3205.76 1010.92 3205.76 1027.49C3205.76 1061.39 3217.48 1078.35 3240.92 1078.35C3252.01 1078.35 3260.84 1073.81 3267.4 1064.75C3274.12 1055.53 3277.48 1042.17 3277.48 1024.67V1018.34Z" stroke="#DB0007" stroke-width="40" mask="url(#path-2-outside-2_28_49)"/>
<path d="M3714.45 1021.39C3714.45 1061.86 3702.19 1093.66 3677.65 1116.78C3653.28 1139.91 3619.14 1151.47 3575.23 1151.47C3531.64 1151.47 3497.65 1140.22 3473.28 1117.72C3449.06 1095.06 3436.95 1063.89 3436.95 1024.2C3436.95 998.735 3442.65 976.625 3454.06 957.875C3465.46 939.125 3481.71 924.75 3502.81 914.75C3523.9 904.749 3548.2 899.749 3575.7 899.749C3604.14 899.749 3628.75 904.984 3649.53 915.453C3670.47 925.922 3686.48 940.453 3697.58 959.047C3708.83 977.641 3714.45 998.422 3714.45 1021.39ZM3613.2 1021.86C3613.2 989.203 3600.7 972.875 3575.7 972.875C3550.7 972.875 3538.2 989.985 3538.2 1024.2C3538.2 1060.3 3550.86 1078.35 3576.17 1078.35C3600.86 1078.35 3613.2 1059.52 3613.2 1021.86Z" stroke="#DB0007" stroke-width="40" mask="url(#path-2-outside-2_28_49)"/>
<path d="M3970.72 1065.92C3970.72 1093.11 3960.33 1114.2 3939.55 1129.21C3918.92 1144.05 3890.09 1151.47 3853.06 1151.47C3842.28 1151.47 3828.92 1150.38 3812.98 1148.19C3797.2 1146 3784.31 1143.35 3774.31 1140.22V1070.14C3803.84 1083.27 3828.53 1089.83 3848.38 1089.83C3867.91 1089.83 3877.67 1084.75 3877.67 1074.6C3877.67 1070.38 3875.41 1066.94 3870.88 1064.28C3866.34 1061.47 3854.47 1056.86 3835.25 1050.45C3814 1043.74 3798.53 1034.83 3788.84 1023.74C3779.16 1012.64 3774.31 998.188 3774.31 980.375C3774.31 955.531 3784.16 935.922 3803.84 921.546C3823.69 907.015 3851.5 899.749 3887.28 899.749C3908.22 899.749 3930.41 902.796 3953.85 908.89V976.156C3944 971.938 3933.22 968.422 3921.5 965.609C3909.78 962.797 3899.94 961.391 3891.97 961.391C3885.41 961.391 3880.17 962.484 3876.27 964.672C3872.36 966.859 3870.41 969.906 3870.41 973.813C3870.41 978.344 3872.52 982.016 3876.74 984.828C3880.95 987.641 3889.39 991 3902.05 994.907C3926.58 1002.09 3944.16 1011.31 3954.78 1022.56C3965.41 1033.81 3970.72 1048.27 3970.72 1065.92Z" stroke="#DB0007" stroke-width="40" mask="url(#path-2-outside-2_28_49)"/>
</svg>
